<svg width="512" height="640" viewBox="0 0 512 640" fill="none" xmlns="http://www.w3.org/2000/svg">
  <rect width="512" height="640" rx="64" fill="url(#paint0_radial)" />
  <g filter="url(#filter0_f)">
    <ellipse cx="154" cy="167" rx="120" ry="122" fill="url(#paint1_radial)" fill-opacity="0.8" />
  </g>
  <g filter="url(#filter1_f)">
    <ellipse cx="361" cy="210" rx="132" ry="140" fill="url(#paint2_radial)" fill-opacity="0.7" />
  </g>
  <g filter="url(#filter2_f)">
    <ellipse cx="260" cy="470" rx="160" ry="150" fill="url(#paint3_radial)" fill-opacity="0.6" />
  </g>
  <path
    d="M256 164C220.671 164 192 192.671 192 228C192 263.329 220.671 292 256 292C291.329 292 320 263.329 320 228C320 192.671 291.329 164 256 164ZM256 164C256 147.431 268.431 135 285 135C301.569 135 314 147.431 314 164"
    stroke="white"
    stroke-opacity="0.75"
    stroke-width="10"
    stroke-linecap="round"
  />
  <path
    d="M128 438C128 362.126 189.126 301 265 301H247C322.874 301 384 362.126 384 438V462C384 486.853 363.853 507 339 507H173C148.147 507 128 486.853 128 462V438Z"
    fill="url(#paint4_linear)"
    fill-opacity="0.85"
  />
  <rect
    x="148"
    y="320"
    width="216"
    height="200"
    rx="92"
    stroke="white"
    stroke-opacity="0.35"
    stroke-width="12"
  />
  <defs>
    <filter id="filter0_f" x="4" y="17" width="300" height="300" filterUnits="userSpaceOnUse">
      <feGaussianBlur stdDeviation="20" />
    </filter>
    <filter id="filter1_f" x="209" y="60" width="304" height="300" filterUnits="userSpaceOnUse">
      <feGaussianBlur stdDeviation="25" />
    </filter>
    <filter id="filter2_f" x="80" y="300" width="360" height="340" filterUnits="userSpaceOnUse">
      <feGaussianBlur stdDeviation="35" />
    </filter>
    <radialGradient id="paint0_radial" cx="0" cy="0" r="1" gradientUnits="userSpaceOnUse" gradientTransform="translate(96 96) rotate(45) scale(640 512)">
      <stop stop-color="#101324" />
      <stop offset="0.45" stop-color="#161B2E" />
      <stop offset="1" stop-color="#0B1220" />
    </radialGradient>
    <radialGradient id="paint1_radial" cx="0" cy="0" r="1" gradientUnits="userSpaceOnUse" gradientTransform="translate(154 167) rotate(90) scale(122 120)">
      <stop stop-color="#6366F1" />
      <stop offset="1" stop-color="#8B5CF6" stop-opacity="0" />
    </radialGradient>
    <radialGradient id="paint2_radial" cx="0" cy="0" r="1" gradientUnits="userSpaceOnUse" gradientTransform="translate(361 210) rotate(90) scale(140 132)">
      <stop stop-color="#38BDF8" />
      <stop offset="1" stop-color="#2563EB" stop-opacity="0" />
    </radialGradient>
    <radialGradient id="paint3_radial" cx="0" cy="0" r="1" gradientUnits="userSpaceOnUse" gradientTransform="translate(260 470) rotate(90) scale(150 160)">
      <stop stop-color="#F472B6" />
      <stop offset="1" stop-color="#7C3AED" stop-opacity="0" />
    </radialGradient>
    <linearGradient id="paint4_linear" x1="128" y1="301" x2="384" y2="507" gradientUnits="userSpaceOnUse">
      <stop stop-color="#1E293B" />
      <stop offset="1" stop-color="#0F172A" stop-opacity="0.8" />
    </linearGradient>
  </defs>
</svg>


