<svg width="512" height="360" viewBox="0 0 512 360" fill="none" xmlns="http://www.w3.org/2000/svg">
  <rect width="512" height="360" rx="40" fill="url(#paint0_linear)" />
  <g filter="url(#filter0_f)">
    <path
      d="M104 92H216V204H104V92Z"
      fill="#818CF8"
      fill-opacity="0.45"
    />
    <path
      d="M216 92H328V204H216V92Z"
      fill="#F472B6"
      fill-opacity="0.45"
    />
    <path
      d="M328 92H440V204H328V92Z"
      fill="#34D399"
      fill-opacity="0.45"
    />
  </g>
  <rect
    x="70"
    y="76"
    width="372"
    height="208"
    rx="30"
    fill="rgba(12, 17, 40, 0.55)"
    stroke="rgba(255,255,255,0.25)"
    stroke-width="3"
  />
  <path
    d="M122 124H218V220H122V124Z"
    fill="url(#paint1_linear)"
    fill-opacity="0.9"
    stroke="rgba(255,255,255,0.3)"
    stroke-width="2"
    stroke-linejoin="round"
  />
  <path
    d="M226 124H322V220H226V124Z"
    fill="url(#paint2_linear)"
    fill-opacity="0.9"
    stroke="rgba(255,255,255,0.3)"
    stroke-width="2"
    stroke-linejoin="round"
  />
  <path
    d="M330 124H426V220H330V124Z"
    fill="url(#paint3_linear)"
    fill-opacity="0.9"
    stroke="rgba(255,255,255,0.3)"
    stroke-width="2"
    stroke-linejoin="round"
  />
  <rect
    x="122"
    y="232"
    width="304"
    height="12"
    rx="6"
    fill="rgba(255,255,255,0.16)"
  />
  <rect
    x="122"
    y="252"
    width="252"
    height="12"
    rx="6"
    fill="rgba(255,255,255,0.12)"
  />
  <defs>
    <linearGradient id="paint0_linear" x1="64" y1="0" x2="448" y2="360" gradientUnits="userSpaceOnUse">
      <stop stop-color="#111827" />
      <stop offset="1" stop-color="#0B1120" />
    </linearGradient>
    <linearGradient id="paint1_linear" x1="122" y1="124" x2="218" y2="220" gradientUnits="userSpaceOnUse">
      <stop stop-color="#6366F1" />
      <stop offset="1" stop-color="#8B5CF6" />
    </linearGradient>
    <linearGradient id="paint2_linear" x1="226" y1="124" x2="322" y2="220" gradientUnits="userSpaceOnUse">
      <stop stop-color="#F472B6" />
      <stop offset="1" stop-color="#F97316" />
    </linearGradient>
    <linearGradient id="paint3_linear" x1="330" y1="124" x2="426" y2="220" gradientUnits="userSpaceOnUse">
      <stop stop-color="#34D399" />
      <stop offset="1" stop-color="#22D3EE" />
    </linearGradient>
    <filter id="filter0_f" x="64" y="52" width="384" height="192" filterUnits="userSpaceOnUse">
      <feGaussianBlur stdDeviation="16" />
    </filter>
  </defs>
</svg>


