<svg width="512" height="360" viewBox="0 0 512 360" fill="none" xmlns="http://www.w3.org/2000/svg">
  <rect width="512" height="360" rx="40" fill="url(#paint0_linear)" />
  <rect
    x="72"
    y="78"
    width="368"
    height="204"
    rx="32"
    fill="rgba(12, 23, 37, 0.6)"
    stroke="rgba(255,255,255,0.22)"
    stroke-width="3"
  />
  <path
    d="M128 168C128 138.386 152.386 114 182 114H244L286 144H330C359.614 144 384 168.386 384 198V216C384 245.614 359.614 270 330 270H182C152.386 270 128 245.614 128 216V168Z"
    fill="url(#paint1_radial)"
  />
  <path
    d="M168 196H224"
    stroke="white"
    stroke-opacity="0.4"
    stroke-width="10"
    stroke-linecap="round"
  />
  <path
    d="M168 228H312"
    stroke="white"
    stroke-opacity="0.24"
    stroke-width="8"
    stroke-linecap="round"
  />
  <circle cx="328" cy="212" r="20" fill="#22D3EE" fill-opacity="0.7" />
  <circle cx="286" cy="144" r="24" fill="#F472B6" fill-opacity="0.6" />
  <path
    d="M240 114H286"
    stroke="#A855F7"
    stroke-width="8"
    stroke-linecap="round"
  />
  <defs>
    <linearGradient id="paint0_linear" x1="66" y1="0" x2="446" y2="360" gradientUnits="userSpaceOnUse">
      <stop stop-color="#0F172A" />
      <stop offset="1" stop-color="#020617" />
    </linearGradient>
    <radialGradient id="paint1_radial" cx="0" cy="0" r="1" gradientUnits="userSpaceOnUse" gradientTransform="translate(256 192) rotate(90) scale(96 128)">
      <stop stop-color="#38BDF8" stop-opacity="0.8" />
      <stop offset="1" stop-color="#6366F1" stop-opacity="0.2" />
    </radialGradient>
  </defs>
</svg>


